<?xml version="1.0" encoding="UTF-8" standalone="no"?>
<!DOCTYPE svg PUBLIC "-//W3C//DTD SVG 1.1//EN" "http://www.w3.org/Graphics/SVG/1.1/DTD/svg11.dtd">
<svg width="100%" height="100%" viewBox="0 0 341 772" version="1.1" xmlns="http://www.w3.org/2000/svg" xmlns:xlink="http://www.w3.org/1999/xlink" xml:space="preserve" style="fill-rule:evenodd;clip-rule:evenodd;stroke-linejoin:round;stroke-miterlimit:1.41421;">
    <g transform="matrix(1,0,0,1,-939.605,-11.6022)">
        <g>
            <g opacity="0.5">
                <g>
                    <clipPath id="_clip1">
                        <rect x="939.605" y="11.602" width="340.425" height="771.113"/>
                    </clipPath>
                    <g clip-path="url(#_clip1)">
                        <path d="M1009.92,441.674C1009.92,442.148 1009.9,442.43 1009.93,442.708C1009.94,442.841 1010.02,443.041 1010.11,443.077C1010.35,443.167 1010.7,443.306 1010.87,443.204C1011.96,442.543 1013.01,441.831 1014.07,441.12C1018.66,438.028 1023.59,437.041 1029.05,438.28C1032.64,439.092 1036.33,439.471 1039.97,440.015C1040.18,440.046 1040.53,439.865 1040.65,439.679C1040.77,439.477 1040.81,439.087 1040.69,438.892C1038.52,435.222 1036.01,431.79 1033.1,428.671C1031.06,426.49 1028.89,424.442 1026.38,422.801C1024.83,421.79 1023.24,420.884 1021.4,420.475C1018.61,419.853 1016.33,420.704 1014.72,423.038C1013.66,424.573 1013.01,426.281 1012.52,428.081C1011.31,432.612 1010.64,437.244 1009.92,441.674M1004.74,519.672C1004.83,520.415 1004.92,521.399 1005.09,522.368C1005.12,522.535 1005.53,522.77 1005.74,522.744C1006.61,522.634 1007.32,522.144 1007.97,521.588C1009.06,520.665 1010.09,519.688 1011.18,518.776C1014.92,515.649 1019.19,514.638 1023.95,515.593C1024.37,515.677 1024.79,515.776 1025.2,515.878C1029.62,516.962 1034.03,518.056 1038.35,519.493C1038.76,519.626 1039.17,519.739 1039.59,519.771C1039.85,519.792 1040.18,519.714 1040.37,519.548C1040.52,519.41 1040.61,519.029 1040.53,518.842C1036.71,510.036 1031.85,501.888 1025.31,494.814C1024.63,494.083 1023.92,493.379 1023.19,492.707C1022.13,491.738 1020.9,491.057 1019.58,490.485C1017.77,489.705 1016.2,490.136 1014.84,491.331C1013.99,492.069 1013.25,492.986 1012.68,493.954C1011.69,495.67 1010.79,497.453 1009.98,499.268C1007.6,504.629 1006.27,510.306 1005.12,516.027C1004.9,517.136 1004.88,518.287 1004.74,519.672M1112.1,439.035C1111.94,438.667 1111.82,438.262 1111.62,437.898C1107.96,431.285 1103.58,425.189 1098.52,419.583C1096.33,417.152 1093.88,414.996 1091.05,413.313C1089.82,412.584 1088.53,411.998 1087.15,411.634C1085.88,411.299 1084.6,411.334 1083.42,411.969C1082.56,412.436 1081.66,412.934 1080.96,413.602C1079.94,414.573 1079.01,415.661 1078.15,416.784C1073.95,422.27 1071.23,428.48 1069.27,435.055C1069.18,435.322 1069.2,435.616 1069.16,435.897C1069.05,436.731 1069.78,437.654 1070.57,437.72C1071.72,437.817 1072.81,437.608 1073.91,437.28C1077.86,436.109 1081.88,435.217 1085.97,434.733C1088.8,434.399 1091.62,434.405 1094.45,434.886C1099.65,435.77 1104.65,437.325 1109.58,439.152C1110.23,439.394 1110.92,439.543 1111.61,439.653C1111.73,439.672 1111.91,439.275 1112.1,439.035M1177.19,420.547C1175.11,420.562 1173.85,420.9 1172.25,422.092C1171.11,422.938 1170.04,423.893 1169.03,424.891C1163.52,430.345 1159.15,436.634 1155.57,443.487C1155.37,443.863 1155.23,444.271 1155.1,444.678C1155.02,444.943 1155.01,445.232 1154.97,445.511C1154.91,445.98 1155.58,446.737 1156.01,446.656C1156.98,446.469 1157.96,446.31 1158.92,446.055C1161.39,445.395 1163.85,444.685 1166.32,444.002C1171.4,442.596 1176.44,442.642 1181.43,444.449C1188.25,446.917 1195.15,449.141 1201.89,451.848C1204.13,452.749 1206.43,453.507 1208.7,454.317C1209.1,454.459 1209.52,454.539 1209.93,454.644C1210.39,454.761 1210.96,454.111 1210.93,453.563C1210.89,452.537 1210.54,451.623 1210.04,450.749C1207.83,446.923 1205.53,443.162 1202.83,439.662C1198.36,433.875 1193.26,428.748 1187.1,424.756C1185.19,423.522 1183.16,422.495 1181.16,421.404C1179.88,420.702 1178.47,420.521 1177.19,420.547M1095.41,527.897C1095.41,527.863 1095.41,527.829 1095.41,527.796C1097.39,527.796 1099.39,527.9 1101.37,527.776C1107.57,527.387 1113.54,528.337 1119.28,530.706C1121.9,531.789 1124.48,532.964 1127.04,534.189C1130.88,536.029 1134.67,537.961 1138.5,539.833C1139.77,540.456 1141.07,541.023 1142.37,541.605C1143.3,542.025 1144.29,542.047 1145.29,542.019C1146.4,541.988 1147.07,541.155 1146.85,539.993C1146.71,539.299 1146.59,538.584 1146.31,537.944C1145.86,536.906 1145.33,535.894 1144.75,534.92C1138.69,524.707 1131.13,515.715 1122.45,507.651C1119.63,505.036 1116.6,502.7 1113.24,500.808C1111.88,500.041 1110.48,499.389 1108.96,498.949C1106.46,498.227 1104.14,498.612 1102.03,499.982C1100.73,500.824 1099.54,501.863 1098.43,502.948C1096.1,505.238 1094.06,507.796 1092.14,510.444C1088.63,515.284 1085.76,520.507 1082.95,525.771C1082.76,526.132 1082.66,526.578 1082.66,526.988C1082.65,527.205 1082.9,527.562 1083.1,527.623C1083.63,527.782 1084.2,527.883 1084.76,527.886C1088.31,527.908 1091.86,527.897 1095.41,527.897M1218.95,542.06C1220.54,542.046 1222.22,542.198 1223.91,542.505C1226.87,543.043 1229.69,543.955 1232.38,545.28C1236.21,547.162 1240.03,549.06 1243.86,550.94C1245.9,551.942 1247.93,552.963 1250.01,553.891C1250.9,554.29 1251.87,554.561 1252.84,554.734C1254.36,555.007 1255.33,553.99 1255.09,552.508C1254.85,550.947 1254.28,549.502 1253.64,548.066C1250.92,541.943 1247.68,536.117 1243.87,530.607C1240.38,525.56 1236.38,520.943 1231.93,516.726C1230.27,515.16 1228.55,513.678 1226.53,512.581C1223.19,510.766 1219.78,510.616 1216.28,512.092C1214.56,512.816 1213.01,513.818 1211.53,514.921C1202.12,521.917 1195.75,531.172 1191.51,541.98C1191.15,542.876 1191.09,543.915 1191.05,544.894C1191.03,545.628 1191.48,546.211 1192.19,546.551C1193.26,547.069 1194.4,547.132 1195.52,546.927C1197.34,546.596 1199.15,546.21 1200.94,545.755C1203.83,545.02 1206.69,544.186 1209.58,543.438C1212.61,542.652 1215.66,541.979 1218.95,542.06M1280,460.008L1280,694.887C1278.68,695.995 1277.13,696.73 1275.59,697.459C1266.07,701.954 1256.44,706.177 1246.55,709.804C1235.44,713.879 1224.08,716.997 1212.37,718.783C1200.96,720.524 1189.46,721.221 1177.93,721.345C1174.8,721.379 1171.67,721.375 1168.54,721.346C1158.99,721.258 1149.5,720.488 1140.05,719.181C1132.86,718.188 1125.73,716.885 1118.65,715.293C1110.47,713.452 1102.34,711.378 1094.41,708.588C1083.89,704.883 1073.93,700.076 1064.98,693.353C1061.45,690.701 1057.75,688.304 1054.05,685.908C1052.13,684.665 1050.11,683.656 1047.92,682.969C1043.53,681.595 1039.54,679.432 1035.85,676.713C1034.14,675.448 1032.49,674.083 1030.86,672.714C1027.58,669.971 1024.14,667.476 1020.37,665.426C1014.85,662.432 1009.76,658.799 1005,654.687C997.871,648.515 991.758,641.397 985.879,634.065C984.905,632.851 984.116,631.484 983.273,630.168C982.328,628.694 981.796,627.105 982.007,625.317C982.335,622.55 981.685,619.984 980.552,617.458C978.92,613.824 977.625,610.057 976.603,606.201C975.328,601.391 973.954,596.605 972.778,591.77C971.161,585.125 970.057,578.401 970.003,571.527C969.988,569.69 969.707,567.846 969.431,566.022C968.391,559.126 967.395,552.226 967.346,545.235C967.317,541.11 967.339,536.983 967.423,532.858C967.521,528.017 968.075,523.208 968.709,518.413C969.36,513.479 970.05,508.55 970.823,503.634C972.04,495.909 973.317,488.193 974.613,480.48C975.885,472.907 977.252,465.35 978.503,457.774C979.437,452.124 980.996,446.721 983.711,441.625C989.468,430.823 995.5,420.188 1002.36,410.043C1004.19,407.335 1006.13,404.692 1008.15,402.125C1014.65,393.887 1022.3,386.946 1031.41,381.673C1035.72,379.178 1040.02,376.664 1044.4,374.307C1059.5,366.189 1075.31,359.89 1092.06,356.078C1101.07,354.028 1110.08,351.976 1119.11,350.002C1124.7,348.777 1130.36,348.446 1136.07,349.261C1143.39,350.306 1150.71,351.357 1158.06,352.179C1164.57,352.907 1171.03,353.941 1177.42,355.271C1192.88,358.485 1208.18,362.361 1223.27,367.01C1235.27,370.706 1246.83,375.45 1257.74,381.688C1264.41,385.5 1271.03,389.396 1277.65,393.289C1278.49,393.786 1279.22,394.488 1280,395.096L1280,441.217C1279.31,441.703 1278.67,442.28 1277.92,442.661C1270.59,446.426 1264.81,451.942 1259.89,458.462C1259.55,458.913 1259.2,459.363 1258.9,459.837C1258.16,460.975 1258.05,462.34 1258.64,463.017C1259.38,463.865 1260.42,463.818 1261.39,463.756C1263.24,463.64 1265.02,463.175 1266.78,462.65C1269.36,461.885 1271.95,461.177 1274.55,460.498C1276.33,460.032 1278.14,459.756 1280,460.008" style="fill:rgb(253,253,253);fill-rule:nonzero;"/>
                        <path d="M1087.42,304.134C1088.46,304.561 1089.15,304.131 1089.1,303.594C1088.83,301.049 1088.55,298.506 1088.28,295.961C1087.99,293.125 1087.95,290.289 1088.19,287.444C1088.62,282.342 1089.14,277.253 1090.36,272.263C1090.6,271.297 1090.81,270.326 1091.03,269.354C1091.14,268.828 1090.57,268.195 1090.05,268.263C1082.57,269.238 1075.12,270.357 1067.83,272.291C1063.98,273.31 1060.2,274.574 1056.59,276.274C1050.81,278.994 1051.03,278.378 1055.18,283.296C1059.25,288.132 1064.27,291.867 1069.65,295.113C1075.51,298.64 1081.71,301.486 1087.42,304.134M1069.83,215.795C1069.88,218.738 1070.01,220.996 1070.59,223.224C1071.66,227.285 1074.16,229.883 1078.17,231.144C1080.8,231.97 1083.47,232.026 1086.18,232.101C1088.83,232.176 1091.24,231.462 1093.5,230.167C1094.61,229.532 1095.69,228.837 1096.7,228.06C1100.34,225.262 1103.42,221.918 1105.93,218.082C1108.78,213.709 1109.78,208.976 1108.4,203.831C1107.32,199.781 1105.68,196.04 1102.59,193.101C1099.62,190.278 1096.09,189.15 1092.02,189.784C1090.32,190.05 1088.71,190.591 1087.17,191.35C1084.35,192.739 1081.7,194.395 1079.27,196.385C1072.93,201.572 1069.64,208.198 1069.83,215.795M1259.71,298.593C1259.61,292.244 1259.26,288.559 1258.28,282.318C1258.02,280.633 1257.81,278.939 1257.53,277.257C1257.43,276.678 1257.03,276.238 1256.47,276.015C1256.08,275.859 1255.67,275.733 1255.26,275.652C1243.11,273.267 1230.87,271.53 1218.55,270.378C1217.41,270.273 1216.28,270.199 1215.15,270.122C1214.78,270.097 1214.32,270.566 1214.35,270.939C1214.41,271.929 1214.42,272.928 1214.57,273.906C1215.17,277.871 1215.12,281.856 1214.81,285.826C1214.44,290.643 1213.8,295.436 1212.88,300.188C1212.04,304.512 1211.26,308.85 1210.46,313.183C1210.39,313.6 1210.34,314.022 1210.29,314.443C1210.22,314.956 1210.8,315.506 1211.39,315.457C1214.79,315.176 1218.19,314.951 1221.58,314.574C1231.47,313.473 1241.36,312.298 1251.14,310.474C1253.24,310.084 1255.32,309.605 1257.39,309.145C1258.13,308.981 1258.68,308.558 1258.82,307.762C1259.05,306.505 1259.36,305.254 1259.46,303.987C1259.63,301.862 1259.67,299.727 1259.71,298.593M1139.94,299.63C1139.94,296.512 1139.9,291.535 1139.95,286.558C1140.01,281.856 1140.62,277.202 1141.44,272.578C1141.69,271.179 1142.01,269.793 1142.3,268.401C1142.74,266.299 1142.52,266.035 1140.2,265.933C1139.07,265.883 1137.93,265.864 1136.79,265.871C1132.67,265.897 1128.54,265.957 1124.42,265.972C1116.16,266.004 1107.94,266.728 1099.7,267.193C1099,267.233 1098.29,267.363 1097.59,267.452C1096.52,267.586 1095.81,268.11 1095.32,269.122C1092.88,274.197 1091.66,279.568 1091.35,285.164C1091,291.73 1091.75,298.229 1092.55,304.727C1092.71,306.041 1093.45,306.678 1094.63,307.113C1100.36,309.23 1106.11,311.304 1111.96,313.087C1118.63,315.121 1125.38,316.815 1132.28,317.869C1134.81,318.256 1137.36,318.524 1139.9,318.822C1140.87,318.936 1141.41,318.305 1141.33,317.224C1141.3,316.941 1141.27,316.658 1141.25,316.375C1140.86,311.413 1140.47,306.451 1139.94,299.63M1168.26,318.043C1168.26,318.089 1168.26,318.136 1168.27,318.183C1179.48,317.549 1190.68,316.923 1201.89,316.273C1203.31,316.191 1204.72,315.996 1206.13,315.824C1206.97,315.722 1207.38,315.337 1207.49,314.451C1208.02,310.221 1208.67,306 1209.01,301.754C1209.6,294.246 1210.02,286.724 1210.46,279.204C1210.63,276.369 1210.64,273.526 1210.71,270.686C1210.73,270.102 1210.27,269.62 1209.67,269.567C1203.86,269.054 1198.07,268.425 1192.25,268.077C1184.59,267.617 1176.94,266.9 1169.26,266.818C1168.55,266.811 1167.84,266.785 1167.13,266.725C1161.18,266.217 1155.21,266.242 1149.24,266.076C1148.54,266.056 1147.81,266.068 1147.12,266.212C1146.77,266.287 1146.32,266.619 1146.19,266.944C1145.79,268.002 1145.44,269.094 1145.21,270.202C1144.06,275.781 1143.4,281.406 1143.31,287.119C1143.14,297.241 1144.45,307.26 1145.19,317.319C1145.21,317.592 1145.31,317.894 1145.46,318.113C1145.62,318.33 1145.88,318.559 1146.12,318.605C1146.67,318.708 1147.25,318.749 1147.81,318.731C1154.62,318.51 1161.44,318.275 1168.26,318.043M1280,395.096C1279.22,394.488 1278.49,393.786 1277.65,393.289C1271.03,389.396 1264.41,385.5 1257.74,381.688C1246.83,375.45 1235.27,370.706 1223.27,367.011C1208.18,362.361 1192.88,358.485 1177.43,355.272C1171.03,353.941 1164.57,352.907 1158.06,352.179C1150.71,351.357 1143.39,350.306 1136.07,349.261C1130.36,348.446 1124.7,348.777 1119.11,350.002C1110.08,351.976 1101.07,354.028 1092.06,356.078C1075.31,359.89 1059.5,366.189 1044.4,374.307C1040.02,376.664 1035.72,379.178 1031.41,381.673C1022.31,386.946 1014.65,393.887 1008.15,402.125C1006.13,404.693 1004.19,407.335 1002.36,410.043C995.501,420.188 989.469,430.823 983.712,441.625C980.997,446.721 979.438,452.124 978.504,457.774C977.253,465.35 975.886,472.907 974.614,480.48C973.318,488.193 972.041,495.909 970.824,503.634C970.05,508.55 969.361,513.48 968.709,518.413C968.076,523.208 967.522,528.017 967.424,532.858C967.34,536.983 967.318,541.11 967.347,545.235C967.396,552.226 968.392,559.126 969.432,566.022C969.707,567.846 969.989,569.69 970.004,571.527C970.058,578.401 971.162,585.125 972.779,591.771C973.955,596.605 975.329,601.391 976.604,606.201C977.626,610.057 978.921,613.824 980.553,617.459C981.686,619.984 982.336,622.55 982.008,625.317C981.797,627.105 982.329,628.694 983.274,630.168C984.117,631.484 984.906,632.851 985.88,634.066C991.759,641.397 997.872,648.515 1005.01,654.687C1009.76,658.799 1014.85,662.432 1020.37,665.426C1024.14,667.476 1027.58,669.971 1030.86,672.714C1032.5,674.083 1034.14,675.448 1035.86,676.713C1039.54,679.432 1043.53,681.595 1047.92,682.969C1050.11,683.656 1052.13,684.665 1054.05,685.909C1057.75,688.305 1061.45,690.701 1064.98,693.354C1073.93,700.077 1083.89,704.883 1094.42,708.588C1102.34,711.378 1110.47,713.452 1118.65,715.293C1125.73,716.885 1132.86,718.188 1140.05,719.181C1149.5,720.488 1159,721.258 1168.54,721.346C1171.67,721.375 1174.8,721.379 1177.93,721.345C1189.46,721.221 1200.96,720.524 1212.37,718.783C1224.08,716.997 1235.44,713.879 1246.55,709.804C1256.44,706.178 1266.07,701.954 1275.59,697.459C1277.13,696.73 1278.68,695.995 1280,694.887L1280,752.966C1278.71,752.921 1277.45,752.948 1276.24,753.505C1275.47,753.858 1274.64,754.084 1273.82,754.312C1270.53,755.227 1268.53,757.5 1267.33,760.555C1266.6,762.413 1266.14,764.335 1266.29,766.382C1266.39,767.798 1266.31,769.228 1266.28,770.651C1266.27,771.07 1266.21,771.507 1266.07,771.9C1265.82,772.603 1265.34,773.107 1264.58,773.268C1263.81,773.431 1263.17,773.147 1262.67,772.591C1262.39,772.279 1262.19,771.894 1261.99,771.518C1260.35,768.358 1259.12,765.023 1258,761.66C1257.46,760.055 1257.21,758.352 1256.82,756.698C1256.62,755.871 1255.69,755.335 1254.82,755.598C1254.01,755.84 1253.14,756.066 1252.46,756.535C1250.7,757.754 1249.16,759.195 1248.14,761.158C1247.15,763.065 1246.33,765.032 1245.9,767.123C1245.53,768.923 1244.79,770.655 1244.85,772.538C1243.95,775.233 1243.08,777.937 1242.15,780.618C1241.86,781.441 1241.18,782.005 1240.44,782.465C1239.75,782.893 1238.59,782.755 1238.08,782.171C1237.11,781.068 1236.48,779.799 1236.47,778.321C1236.43,774.051 1236.46,769.781 1236.45,765.511C1236.45,764.491 1236.79,763.565 1237.06,762.606C1237.2,762.084 1237.19,761.468 1237.07,760.937C1236.99,760.586 1236.63,760.147 1236.31,760.03C1235.07,759.595 1233.77,759.709 1232.51,759.89C1231.98,759.966 1231.4,760.255 1231.01,760.624C1228.64,762.866 1226.18,765.034 1224.48,767.894C1223.39,769.722 1222.09,771.412 1221.09,773.306C1220.01,775.358 1218.23,776.828 1216.43,778.218C1215.86,778.655 1215.06,778.671 1214.39,778.343C1214.05,778.174 1213.6,777.807 1213.56,777.484C1213.29,775.368 1213.13,773.234 1213.73,771.14C1214.34,768.958 1214.79,766.727 1215.64,764.611C1216.01,763.693 1216.25,762.718 1216.52,761.762C1216.67,761.248 1216.01,760.199 1215.43,760.103C1214.6,759.962 1213.75,759.83 1212.91,759.825C1207.79,759.793 1202.66,759.811 1197.54,759.784C1195.41,759.773 1193.26,759.984 1191.22,759.127C1190.84,758.969 1190.38,758.982 1189.95,758.978C1187.96,758.955 1185.96,758.985 1184.08,758.197C1178.08,757.679 1172.44,755.739 1166.82,753.773C1164.82,753.072 1162.87,752.149 1161.04,751.075C1156.88,748.635 1152.8,746.053 1149.11,742.922C1148.32,742.25 1147.46,741.865 1146.4,741.87C1142.98,741.889 1139.57,741.896 1136.15,741.865C1134.8,741.853 1133.58,742.288 1132.56,743.039C1130.95,744.216 1129.44,745.542 1128.6,747.43C1128.08,748.596 1127.6,749.777 1127.08,750.941C1126.67,751.844 1126.3,752.782 1125.77,753.602C1125.49,754.029 1124.9,754.417 1124.4,754.512C1121.08,755.14 1120.07,754.47 1119.03,751.366C1118.56,749.962 1118.31,748.499 1118.76,747.18C1119.33,745.531 1119.24,743.803 1119.75,742.179C1120.01,741.367 1120.46,740.522 1119.79,739.774C1118.88,738.769 1117.65,738.262 1116.33,738.571C1114.53,738.987 1112.69,739.431 1111.17,740.517C1108.74,742.254 1106.17,743.767 1103.6,745.27C1101.64,746.414 1099.63,747.501 1097.56,748.422C1095.55,749.318 1093.11,747.604 1092.99,745.36C1092.95,744.503 1092.97,743.652 1093.35,742.853C1093.53,742.467 1093.68,742.065 1093.89,741.693C1094.78,740.077 1095.7,738.472 1096.59,736.857C1096.79,736.488 1097.01,736.11 1097.12,735.708C1097.56,733.967 1096.45,732.487 1094.69,732.54C1094.27,732.552 1093.83,732.597 1093.44,732.74C1092.77,732.984 1092.12,733.277 1091.5,733.62C1087.88,735.617 1083.97,736.964 1080.26,738.771C1079.77,739.014 1079.19,739.143 1078.64,739.231C1077.31,739.444 1076.05,738.444 1075.94,737.114C1075.83,735.835 1075.78,734.566 1076.29,733.333C1076.78,732.153 1077.18,730.937 1077.66,729.754C1078.37,728.014 1078.34,727.939 1076.75,727.236C1074.54,726.258 1072.3,725.395 1069.98,724.68C1066.58,723.627 1063.43,722.032 1060.37,720.167C1057.22,718.244 1054.14,716.219 1051.06,714.188C1049.86,713.4 1048.76,712.536 1047.7,711.589C1046.64,710.65 1045.41,709.91 1044.34,708.987C1043.26,708.06 1042.4,706.85 1041.24,706.058C1039.35,704.763 1037.67,703.259 1036.09,701.622C1034.9,700.399 1033.63,699.269 1032.79,697.731C1032.39,697.004 1031.69,696.431 1031.1,695.82C1029.91,694.596 1028.71,693.38 1027.49,692.187C1025.76,690.504 1024.2,688.623 1022.02,687.472C1018.85,684.629 1015.34,682.18 1012.5,678.962C1010.62,676.838 1008.35,675.077 1006.88,672.571C1006.46,671.853 1005.73,671.324 1005.15,670.692C1004.58,670.061 1003.9,669.479 1003.5,668.749C1002.8,667.472 1001.77,666.505 1000.79,665.48C999.705,664.353 998.643,663.238 997.778,661.901C997.018,660.727 995.898,659.778 994.898,658.768C990.362,654.192 990.344,654.206 986.827,648.911C982.551,642.474 979.339,635.536 977.186,628.114C976.99,627.44 976.798,626.718 976.834,626.031C977.004,622.834 976.085,619.853 975.121,616.881C974.592,615.251 974.094,613.63 974.234,611.884C974.328,610.705 973.909,609.649 973.392,608.621C972.624,607.096 971.821,605.587 971.111,604.035C970.582,602.876 970.208,601.648 969.711,600.474C968.835,598.403 968.893,596.286 969.538,594.215C970.075,592.487 970.06,590.876 969.309,589.242C969.133,588.859 969.147,588.385 968.953,588.016C967.402,585.068 967.053,581.815 966.511,578.609C966.441,578.19 966.407,577.746 966.24,577.365C965.629,575.975 965.866,574.665 966.217,573.225C966.896,570.441 966.805,567.558 966.248,564.765C965.998,563.509 965.716,562.277 965.664,560.996C965.652,560.713 965.666,560.406 965.564,560.152C964.638,557.83 964.852,555.395 964.841,552.986C964.823,549.286 964.817,545.585 964.844,541.884C964.861,539.619 964.609,537.319 965.535,535.144C965.556,533.014 965.607,530.882 965.568,528.753C965.562,528.394 965.247,527.936 964.938,527.706C962.503,525.89 960.667,523.563 959.059,521.025C957.538,518.625 955.9,516.288 955.219,513.463C953.035,509.247 952.364,504.572 951.181,500.055C950.752,498.418 950.105,496.804 950.284,495.051C949.413,492.63 949.625,490.008 948.876,487.548C948.554,486.491 948.661,485.296 948.621,484.162C948.56,482.462 948.667,480.765 948.044,479.105C947.756,478.336 947.797,477.426 947.778,476.578C947.735,474.729 947.757,472.878 947.737,471.027C947.729,470.317 947.842,469.551 947.619,468.906C946.662,466.137 946.968,463.282 946.905,460.451C946.864,458.607 946.954,456.771 946.272,454.975C945.982,454.213 946.073,453.289 946.072,452.438C946.06,441.621 946.061,430.803 946.06,419.985C946.06,418.704 946.042,417.425 946.55,416.203C946.711,415.815 946.868,415.363 946.823,414.964C946.498,412.075 947.618,409.36 947.804,406.531C947.887,405.274 948.382,404.049 948.549,402.791C948.716,401.529 948.866,400.278 949.105,399.018C949.661,396.091 950.313,393.195 951.135,390.335C952.111,386.936 952.728,383.424 954.299,380.211C955.137,376.582 957.144,373.405 958.287,369.894C958.418,369.491 958.62,369.105 958.836,368.738C960.346,366.169 961.823,363.58 963.402,361.054C964.336,359.562 964.956,358.034 964.835,356.248C964.797,355.682 964.853,355.109 964.831,354.541C964.729,351.789 965.478,349.211 966.434,346.678C966.935,345.351 967.393,343.998 968.015,342.728C970.083,338.511 972.53,334.503 975.658,331.002C977.22,329.254 978.324,327.326 979.204,325.231C979.972,323.403 980.58,321.508 981.281,319.651C981.481,319.12 981.693,318.572 982.013,318.112C984.036,315.205 985.706,312.04 988.369,309.598C989.195,308.84 989.816,307.861 990.535,306.985C991.074,306.328 991.587,305.645 992.167,305.025C993.233,303.882 994.405,302.837 995.115,301.398C995.298,301.027 995.624,300.712 995.93,300.418C998.72,297.744 1000.82,294.521 1003,291.377C1005.21,288.186 1007.92,285.51 1011.02,283.225C1012.08,282.447 1013.1,281.695 1013.58,280.459C1014.67,277.685 1015.96,274.991 1016.77,272.114C1016.95,271.48 1016.36,270.559 1015.74,270.513C1014.89,270.451 1014.04,270.39 1013.19,270.39C997.528,270.391 981.871,270.4 966.214,270.411C964.794,270.412 963.397,270.449 961.994,270.862C960.928,271.175 959.753,271.196 958.625,271.211C954.925,271.26 951.224,271.245 947.523,271.258C945.96,271.263 944.42,271.279 942.898,271.832C942.139,272.108 941.219,271.967 940.372,271.964C939.837,271.962 939.443,271.148 939.672,270.686C940.067,269.885 940.646,269.216 941.468,268.955C944.298,268.054 947.108,267.029 950.137,266.974C950.704,266.963 951.324,267.033 951.828,266.834C954.02,265.966 956.306,266.176 958.572,266.108C959.281,266.086 960.055,266.167 960.685,265.915C962.611,265.145 964.602,265.302 966.586,265.297C976.55,265.275 986.513,265.271 996.477,265.251C998.462,265.247 1000.44,265.335 1002.38,264.641C1003.28,264.321 1004.35,264.456 1005.35,264.448C1008.76,264.419 1012.18,264.421 1015.59,264.403C1016.45,264.399 1017.31,264.437 1018.15,264.328C1019.82,264.113 1021.17,263.325 1021.68,261.653C1022.31,259.595 1023.35,257.734 1024.2,255.785C1024.42,255.281 1024.49,254.697 1024.56,254.142C1024.65,253.444 1024.09,252.622 1023.4,252.608C1021.39,252.566 1019.58,251.529 1017.55,251.57C1015.56,251.611 1013.72,250.598 1011.68,250.641C1010.44,250.667 1009.2,250.072 1007.94,249.929C1006.81,249.8 1005.7,249.716 1004.6,249.366C1003.8,249.114 1002.92,249.09 1002.07,249.054C1000.93,249.005 999.824,248.903 998.717,248.547C997.923,248.291 997.045,248.245 996.2,248.206C994.64,248.133 993.111,248.098 991.57,247.624C990.383,247.258 989.039,247.382 987.764,247.336C986.203,247.28 984.672,247.259 983.128,246.793C981.937,246.434 980.6,246.533 979.325,246.485C977.766,246.426 976.226,246.448 974.686,245.966C973.631,245.635 972.445,245.678 971.314,245.638C968.766,245.549 966.223,245.74 963.706,244.944C962.531,244.572 961.165,244.794 959.886,244.766C958.184,244.729 956.505,244.752 954.829,244.191C953.788,243.843 952.581,243.961 951.447,243.925C949.323,243.858 947.202,244.019 945.123,243.253C944.092,242.873 942.901,242.932 941.786,242.772C941.676,242.756 941.508,242.604 941.504,242.51C941.494,242.25 941.463,241.908 941.606,241.738C942.176,241.059 942.973,240.718 943.825,240.591C944.524,240.487 945.244,240.521 945.954,240.488C946.805,240.448 947.729,240.599 948.495,240.321C950.71,239.516 952.982,239.686 955.249,239.674C958.38,239.657 961.512,239.663 964.643,239.672C966.346,239.677 968.019,239.699 969.704,240.218C970.889,240.583 972.235,240.45 973.511,240.495C975.775,240.575 978.03,240.415 980.269,241.15C981.438,241.534 982.806,241.328 984.085,241.363C985.505,241.401 986.909,241.385 988.292,241.894C989.067,242.179 989.967,242.171 990.813,242.204C991.955,242.248 993.082,242.289 994.165,242.727C994.553,242.885 995,243.031 995.405,242.996C998.426,242.74 1001.28,243.934 1004.26,243.97C1007.07,245.107 1010.21,244.398 1013.02,245.544C1015.61,245.351 1018,246.695 1020.59,246.565C1021.13,246.539 1021.68,246.862 1022.24,246.977C1022.93,247.121 1023.63,247.229 1024.33,247.33C1026.24,247.608 1027.56,246.784 1028.66,245.251C1031.19,241.73 1032.47,237.662 1033.87,233.646C1034.33,232.299 1033.79,231.101 1032.67,230.256C1032,229.748 1031.27,229.255 1030.48,228.957C1025.84,227.196 1021.2,225.486 1016.4,224.129C1009.72,222.235 1002.97,220.619 996.241,218.925C993.219,218.164 990.285,217.053 987.264,216.287C984.378,215.555 981.563,214.591 978.676,213.859C976.214,213.235 973.852,212.194 971.481,211.248C970.263,210.762 969.402,209.762 968.682,208.691C968.365,208.219 968.229,207.596 968.616,207.095C968.849,206.792 969.267,206.45 969.61,206.442C972.311,206.377 975.028,206.218 977.712,206.436C979.52,206.583 981.3,207.238 983.061,207.769C985.508,208.506 987.888,209.502 990.366,210.092C993.424,210.821 996.227,212.212 999.207,213.127C1002.06,214.003 1004.94,214.819 1007.7,215.933C1014.15,218.539 1020.69,220.904 1027.31,223.042C1030.41,224.044 1033.55,224.948 1036.68,225.85C1038.05,226.246 1039.23,225.722 1039.9,224.417C1041.46,221.379 1042.99,218.327 1044.49,215.263C1046.63,210.924 1048.99,206.724 1051.57,202.632C1052.78,200.716 1053.85,198.691 1055.16,196.841C1057.53,193.487 1060.01,190.207 1062.45,186.897C1064.05,184.724 1065.69,182.581 1067.69,180.75C1068.01,180.464 1068.35,180.161 1068.54,179.795C1069.84,177.347 1072.06,175.714 1073.91,173.765C1074.49,173.156 1075.23,172.696 1075.89,172.166C1076.56,171.635 1077.29,171.17 1077.87,170.559C1080.43,167.861 1083.47,165.766 1086.51,163.676C1091.66,160.131 1096.94,156.788 1102.61,154.116C1103,153.934 1103.36,153.687 1103.75,153.527C1105.5,152.815 1105.92,151.43 1105.74,149.714C1105.66,148.975 1105.38,148.346 1104.79,147.875C1104.57,147.696 1104.32,147.553 1104.11,147.363C1103.1,146.437 1103.08,145.398 1104.09,144.456C1104.61,143.977 1105.19,143.569 1105.75,143.135C1106.09,142.876 1106.46,142.654 1106.77,142.372C1107.22,141.967 1107.37,141.422 1107.32,140.832C1107.29,140.36 1106.7,139.871 1106.13,139.798C1105.85,139.763 1105.56,139.76 1105.28,139.712C1104.37,139.555 1103.05,140.108 1102.78,138.762C1102.59,137.809 1103.63,137.439 1104.35,136.991C1104.83,136.692 1105.26,136.316 1105.68,135.936C1106.77,134.955 1106.83,133.65 1105.79,132.555C1104.42,131.108 1103.02,129.696 1101.6,128.292C1100.69,127.381 1099.91,126.393 1099.36,125.206C1098.64,123.657 1097.81,122.163 1097.09,120.614C1096.32,118.936 1095.75,117.198 1095.48,115.345C1095.13,112.966 1094.42,110.637 1094.61,108.19C1094.63,107.912 1094.6,107.607 1094.51,107.347C1093.34,104.166 1093.98,100.864 1093.84,97.615C1093.83,97.192 1093.81,96.728 1093.96,96.347C1094.86,94.017 1094.62,91.583 1094.67,89.175C1094.71,87.614 1094.71,86.078 1095.21,84.539C1095.55,83.491 1095.45,82.294 1095.5,81.161C1095.58,79.038 1095.32,76.883 1096.2,74.846C1096.31,74.594 1096.35,74.281 1096.32,74.006C1096.07,71.546 1097.04,69.253 1097.32,66.863C1097.53,65.041 1098.28,63.315 1099.08,61.638C1101.34,56.89 1103.69,52.182 1105.77,47.358C1107.57,43.193 1109.42,39.048 1111,34.785C1112.04,31.993 1113.34,29.302 1114.5,26.556C1115.53,24.104 1117.46,22.419 1119.42,20.758C1119.72,20.497 1120.16,20.307 1120.57,20.254C1122.13,20.045 1123.64,20.133 1125.14,20.841C1127.52,21.963 1129.56,23.372 1130.83,25.766C1131.49,27.018 1132.38,28.154 1133.02,29.414C1134.3,31.935 1135.82,34.327 1136.85,36.992C1138.03,40.029 1139.38,42.976 1140.24,46.148C1141.1,49.287 1142.2,52.364 1143.07,55.51C1144.13,59.336 1145.33,63.122 1146.26,66.982C1146.72,68.906 1147.2,70.831 1147.54,72.78C1148.24,76.823 1149.26,80.81 1149.89,84.852C1150.36,87.913 1151.28,90.947 1151.05,94.111C1151,94.812 1150.98,95.592 1151.23,96.223C1151.99,98.148 1151.85,100.138 1151.87,102.123C1151.88,103.688 1151.91,105.255 1151.87,106.82C1151.81,108.657 1151.92,110.479 1151.51,112.331C1150.66,116.22 1149.8,120.085 1147.95,123.653C1147.3,124.916 1146.71,126.216 1146.03,127.463C1145.17,129.036 1144.81,130.59 1145.52,132.358C1145.89,133.297 1145.08,134.288 1144,134.479C1141.91,134.848 1139.81,135.203 1137.72,135.57C1137.03,135.693 1136.57,136.317 1136.57,137.131C1136.56,138.586 1137.48,139.647 1138.85,139.681C1139.55,139.698 1140.32,139.754 1140.96,139.521C1143.91,138.452 1147.07,138.278 1150.04,137.339C1152.9,137.378 1155.59,136.089 1158.46,136.277C1160.66,135.734 1162.94,135.602 1165.14,135.113C1166.41,134.833 1167.64,134.604 1168.92,134.597C1170.2,134.59 1171.46,134.525 1172.71,134.098C1173.49,133.828 1174.38,133.799 1175.22,133.765C1176.79,133.701 1178.36,133.795 1179.84,133.13C1180.22,132.962 1180.68,132.959 1181.1,132.937C1183.5,132.815 1185.93,133.044 1188.27,132.153C1189.03,131.866 1189.96,132.069 1190.82,132.026C1191.53,131.989 1192.3,132.085 1192.93,131.835C1194.85,131.075 1196.84,131.201 1198.83,131.177C1200.11,131.161 1201.36,131.071 1202.61,130.687C1203.54,130.402 1204.57,130.362 1205.56,130.357C1212.11,130.328 1218.65,130.336 1225.2,130.336C1226.48,130.336 1227.77,130.297 1228.98,130.835C1229.24,130.948 1229.53,131.053 1229.8,131.052C1233.12,131.038 1236.21,132.221 1239.37,132.968C1244.88,134.271 1250.34,135.816 1255.77,137.447C1257.4,137.935 1259.04,138.385 1260.69,138.783C1261.23,138.913 1261.83,138.863 1262.39,138.817C1262.62,138.798 1262.97,138.61 1263.02,138.427C1263.09,138.22 1262.96,137.823 1262.78,137.696C1261.86,137.04 1260.88,136.467 1259.97,135.811C1259.78,135.678 1259.7,135.313 1259.69,135.048C1259.67,134.614 1259.81,134.139 1260.25,134.014C1261.19,133.748 1262.16,133.59 1263.11,133.363C1263.19,133.344 1263.25,133.146 1263.28,133.022C1263.3,132.893 1263.33,132.7 1263.26,132.63C1263.07,132.433 1262.85,132.242 1262.61,132.127C1261.84,131.766 1261.03,131.47 1260.27,131.089C1259.9,130.902 1259.56,130.617 1259.28,130.312C1258.87,129.882 1258.7,129.351 1258.86,128.748C1258.99,128.25 1259.57,127.781 1260.15,127.852C1260.98,127.956 1261.81,128.176 1262.64,128.276C1262.87,128.304 1263.24,128.144 1263.35,127.957C1263.46,127.759 1263.45,127.362 1263.32,127.159C1260.8,123.182 1258.9,118.88 1256.85,114.665C1255.29,111.461 1254.58,107.956 1253.67,104.529C1253.49,103.856 1253.53,103.115 1253.53,102.405C1253.52,97.993 1253.62,93.578 1253.49,89.169C1253.44,87.259 1254.31,85.573 1254.37,83.72C1254.42,82.023 1254.2,80.29 1254.96,78.675C1255.09,76.26 1255.89,73.966 1256.19,71.564C1256.59,68.348 1257.44,65.185 1258.21,62.019C1260.3,53.321 1263.09,44.836 1265.89,36.35C1267.95,30.12 1270.6,24.165 1273.62,18.36C1274.15,17.341 1274.73,16.373 1275.59,15.595C1277.06,14.262 1278.23,12.606 1280,11.602L1280,201.213C1279.82,201.404 1280.11,201.788 1280,201.754C1279.46,201.593 1278.4,201.363 1277.92,201.076C1273.25,198.292 1268.28,198.076 1263.12,199.282C1257.16,200.673 1252.05,203.613 1247.63,207.769C1245.58,209.709 1243.66,211.816 1241.82,213.968C1239.46,216.718 1239.74,216.278 1240.69,219.685C1241.26,221.731 1241.86,223.777 1242.6,225.767C1244.09,229.771 1245.98,233.582 1248.61,236.972C1249.65,238.311 1250.78,239.608 1252.04,240.739C1254.2,242.68 1256.73,243.839 1259.69,244.09C1262.38,244.319 1265.06,244.37 1267.75,244.073C1272.2,243.583 1276.32,242.251 1280,239.648L1280,282.354C1279.75,282.655 1279.59,283.022 1279.04,282.774C1274.1,280.558 1268.98,278.856 1263.72,277.564C1262.91,277.365 1262.04,277.343 1261.2,277.324C1261.02,277.32 1260.69,277.673 1260.67,277.884C1260.63,278.295 1260.74,278.728 1260.83,279.142C1261.94,284.446 1262.66,289.791 1262.5,295.225C1262.41,298.213 1262.21,301.19 1261.4,304.092C1261.13,305.047 1260.94,306.025 1260.71,306.994C1260.59,307.531 1261.1,308.075 1261.69,308.024C1262.25,307.976 1262.84,307.982 1263.37,307.831C1268.16,306.488 1272.96,305.166 1277.48,303.022C1278.12,302.719 1279.32,302.482 1280,302.297C1280.12,302.266 1279.82,302.656 1280,302.852L1280,395.096Z" style="fill:rgb(92,99,112);fill-rule:nonzero;"/>
                        <path d="M1278.31,218.575C1278.51,215.835 1277.67,213.287 1275.15,210.898C1272.3,208.184 1268.79,207.203 1264.94,207.622C1261.05,208.045 1258.04,210.11 1255.76,213.229C1252.26,218.01 1253.16,224.477 1257.91,228.02C1262.45,231.414 1268.82,232.081 1273.93,227.416C1275.42,226.055 1276.57,224.456 1277.4,222.619C1278,221.304 1278.38,219.954 1278.31,218.575M1280,239.648C1276.32,242.251 1272.2,243.583 1267.75,244.073C1265.06,244.37 1262.38,244.319 1259.69,244.09C1256.73,243.839 1254.19,242.68 1252.04,240.739C1250.78,239.608 1249.65,238.311 1248.61,236.972C1245.98,233.582 1244.09,229.771 1242.6,225.767C1241.86,223.777 1241.26,221.731 1240.69,219.685C1239.74,216.278 1239.46,216.718 1241.82,213.968C1243.66,211.816 1245.57,209.709 1247.63,207.769C1252.05,203.613 1257.16,200.673 1263.12,199.282C1268.28,198.076 1273.25,198.291 1277.92,201.076C1278.4,201.363 1279.46,201.593 1280,201.754C1280.11,201.788 1279.82,201.404 1280,201.213L1280,239.648Z" style="fill:rgb(249,249,249);fill-rule:nonzero;"/>
                        <path d="M1280,302.852C1279.82,302.656 1280.12,302.265 1280,302.297C1279.32,302.482 1278.12,302.719 1277.48,303.022C1272.96,305.166 1268.16,306.488 1263.37,307.831C1262.84,307.982 1262.25,307.976 1261.69,308.024C1261.1,308.075 1260.59,307.531 1260.71,306.994C1260.93,306.025 1261.13,305.047 1261.4,304.092C1262.21,301.19 1262.41,298.213 1262.5,295.225C1262.66,289.791 1261.93,284.446 1260.83,279.142C1260.74,278.728 1260.63,278.295 1260.67,277.884C1260.69,277.672 1261.02,277.32 1261.2,277.324C1262.04,277.342 1262.91,277.365 1263.72,277.564C1268.98,278.856 1274.1,280.558 1279.04,282.774C1279.59,283.022 1279.75,282.655 1280,282.353L1280,302.852Z" style="fill:rgb(249,249,249);fill-rule:nonzero;"/>
                        <path d="M1280,460.008C1278.14,459.756 1276.33,460.032 1274.55,460.498C1271.95,461.177 1269.36,461.885 1266.78,462.65C1265.02,463.176 1263.24,463.641 1261.39,463.757C1260.42,463.818 1259.39,463.866 1258.64,463.017C1258.05,462.341 1258.16,460.976 1258.9,459.838C1259.2,459.363 1259.55,458.914 1259.89,458.462C1264.81,451.942 1270.59,446.426 1277.93,442.662C1278.67,442.28 1279.31,441.704 1280,441.218L1280,460.008Z" style="fill:rgb(92,99,112);fill-rule:nonzero;"/>
                        <path d="M1218.95,542.06C1215.66,541.979 1212.61,542.652 1209.58,543.438C1206.69,544.186 1203.83,545.02 1200.94,545.755C1199.15,546.21 1197.34,546.596 1195.52,546.927C1194.4,547.132 1193.26,547.07 1192.19,546.551C1191.48,546.211 1191.03,545.629 1191.05,544.894C1191.09,543.915 1191.15,542.876 1191.51,541.98C1195.75,531.172 1202.12,521.917 1211.53,514.921C1213.01,513.818 1214.56,512.816 1216.28,512.092C1219.78,510.616 1223.19,510.766 1226.53,512.582C1228.55,513.679 1230.27,515.16 1231.93,516.726C1236.38,520.943 1240.38,525.56 1243.87,530.607C1247.68,536.117 1250.92,541.943 1253.64,548.066C1254.28,549.502 1254.85,550.947 1255.09,552.508C1255.32,553.99 1254.36,555.007 1252.84,554.734C1251.87,554.561 1250.9,554.29 1250,553.891C1247.93,552.963 1245.9,551.942 1243.86,550.94C1240.03,549.06 1236.21,547.162 1232.39,545.28C1229.69,543.955 1226.87,543.043 1223.91,542.506C1222.22,542.198 1220.53,542.046 1218.95,542.06" style="fill:rgb(92,99,112);fill-rule:nonzero;"/>
                        <path d="M1095.41,527.897C1091.86,527.897 1088.31,527.908 1084.76,527.886C1084.2,527.882 1083.63,527.782 1083.1,527.623C1082.9,527.562 1082.65,527.205 1082.66,526.987C1082.66,526.578 1082.76,526.131 1082.95,525.771C1085.76,520.507 1088.63,515.284 1092.14,510.444C1094.06,507.796 1096.1,505.238 1098.43,502.948C1099.54,501.862 1100.74,500.824 1102.03,499.982C1104.14,498.612 1106.46,498.227 1108.96,498.949C1110.48,499.389 1111.88,500.041 1113.24,500.808C1116.6,502.7 1119.63,505.036 1122.45,507.651C1131.13,515.715 1138.69,524.706 1144.75,534.92C1145.33,535.894 1145.86,536.906 1146.31,537.944C1146.59,538.584 1146.71,539.299 1146.85,539.992C1147.07,541.155 1146.4,541.988 1145.29,542.019C1144.29,542.047 1143.3,542.024 1142.37,541.605C1141.07,541.023 1139.77,540.456 1138.5,539.832C1134.67,537.96 1130.88,536.029 1127.04,534.189C1124.48,532.964 1121.9,531.788 1119.28,530.706C1113.54,528.337 1107.57,527.387 1101.37,527.776C1099.39,527.9 1097.39,527.795 1095.41,527.795C1095.41,527.829 1095.41,527.863 1095.41,527.897" style="fill:rgb(92,99,112);fill-rule:nonzero;"/>
                        <path d="M1177.19,420.547C1178.47,420.521 1179.88,420.703 1181.16,421.404C1183.16,422.495 1185.2,423.522 1187.1,424.756C1193.26,428.749 1198.36,433.875 1202.83,439.663C1205.53,443.163 1207.83,446.923 1210.04,450.749C1210.54,451.623 1210.89,452.538 1210.94,453.563C1210.96,454.112 1210.39,454.761 1209.93,454.644C1209.52,454.539 1209.1,454.459 1208.7,454.317C1206.43,453.507 1204.13,452.749 1201.89,451.849C1195.15,449.142 1188.25,446.917 1181.43,444.449C1176.44,442.643 1171.4,442.597 1166.32,444.003C1163.85,444.685 1161.39,445.396 1158.92,446.055C1157.96,446.311 1156.98,446.47 1156.01,446.657C1155.58,446.737 1154.91,445.981 1154.97,445.511C1155.01,445.232 1155.02,444.944 1155.1,444.678C1155.23,444.272 1155.37,443.864 1155.57,443.488C1159.15,436.634 1163.52,430.345 1169.03,424.892C1170.04,423.894 1171.11,422.939 1172.25,422.092C1173.85,420.901 1175.11,420.562 1177.19,420.547" style="fill:rgb(92,99,112);fill-rule:nonzero;"/>
                        <path d="M1112.1,439.035C1111.91,439.274 1111.73,439.672 1111.61,439.653C1110.92,439.543 1110.23,439.394 1109.57,439.152C1104.65,437.324 1099.65,435.77 1094.45,434.886C1091.62,434.404 1088.8,434.399 1085.97,434.733C1081.88,435.216 1077.86,436.109 1073.91,437.28C1072.81,437.608 1071.72,437.817 1070.57,437.72C1069.78,437.653 1069.05,436.73 1069.16,435.897C1069.2,435.616 1069.18,435.322 1069.26,435.055C1071.23,428.48 1073.95,422.27 1078.15,416.784C1079.01,415.661 1079.94,414.573 1080.96,413.602C1081.66,412.934 1082.56,412.436 1083.42,411.968C1084.6,411.334 1085.88,411.298 1087.15,411.634C1088.53,411.998 1089.82,412.584 1091.05,413.313C1093.88,414.996 1096.33,417.152 1098.52,419.583C1103.58,425.188 1107.96,431.285 1111.62,437.898C1111.82,438.262 1111.94,438.667 1112.1,439.035" style="fill:rgb(92,99,112);fill-rule:nonzero;"/>
                        <path d="M1004.74,519.672C1004.88,518.287 1004.9,517.136 1005.12,516.027C1006.27,510.306 1007.6,504.629 1009.98,499.268C1010.79,497.454 1011.69,495.671 1012.69,493.954C1013.25,492.986 1013.99,492.069 1014.84,491.331C1016.2,490.136 1017.77,489.705 1019.58,490.485C1020.9,491.057 1022.13,491.738 1023.19,492.707C1023.92,493.379 1024.63,494.084 1025.31,494.814C1031.85,501.888 1036.71,510.036 1040.53,518.842C1040.61,519.029 1040.52,519.41 1040.37,519.548C1040.18,519.714 1039.85,519.792 1039.59,519.772C1039.17,519.739 1038.76,519.626 1038.36,519.493C1034.03,518.057 1029.62,516.962 1025.2,515.878C1024.79,515.776 1024.37,515.677 1023.95,515.594C1019.2,514.639 1014.92,515.649 1011.18,518.776C1010.09,519.688 1009.06,520.665 1007.98,521.588C1007.32,522.144 1006.61,522.634 1005.74,522.744C1005.53,522.77 1005.12,522.535 1005.09,522.369C1004.92,521.399 1004.83,520.415 1004.74,519.672" style="fill:rgb(92,99,112);fill-rule:nonzero;"/>
                        <path d="M1009.92,441.674C1010.64,437.244 1011.31,432.612 1012.52,428.081C1013.01,426.281 1013.66,424.573 1014.72,423.038C1016.33,420.704 1018.61,419.853 1021.4,420.475C1023.24,420.884 1024.83,421.79 1026.38,422.801C1028.89,424.442 1031.06,426.49 1033.1,428.671C1036.01,431.79 1038.52,435.222 1040.69,438.892C1040.81,439.087 1040.77,439.477 1040.65,439.679C1040.53,439.865 1040.18,440.046 1039.97,440.015C1036.33,439.471 1032.64,439.092 1029.05,438.28C1023.59,437.041 1018.66,438.028 1014.07,441.12C1013.01,441.831 1011.96,442.543 1010.87,443.204C1010.7,443.306 1010.35,443.167 1010.11,443.077C1010.02,443.041 1009.94,442.841 1009.93,442.708C1009.9,442.43 1009.92,442.148 1009.92,441.674" style="fill:rgb(92,99,112);fill-rule:nonzero;"/>
                        <path d="M1168.26,318.043C1161.44,318.275 1154.62,318.51 1147.81,318.731C1147.25,318.749 1146.67,318.709 1146.12,318.605C1145.88,318.559 1145.62,318.33 1145.46,318.113C1145.31,317.895 1145.21,317.592 1145.19,317.32C1144.45,307.26 1143.14,297.242 1143.31,287.119C1143.4,281.406 1144.06,275.781 1145.21,270.202C1145.44,269.094 1145.79,268.002 1146.19,266.944C1146.32,266.619 1146.77,266.287 1147.12,266.213C1147.81,266.069 1148.54,266.056 1149.24,266.076C1155.21,266.242 1161.18,266.217 1167.13,266.725C1167.84,266.785 1168.55,266.811 1169.26,266.819C1176.94,266.9 1184.59,267.618 1192.25,268.077C1198.07,268.426 1203.86,269.054 1209.67,269.568C1210.27,269.621 1210.73,270.102 1210.71,270.686C1210.64,273.526 1210.63,276.37 1210.46,279.205C1210.02,286.724 1209.6,294.246 1209.01,301.754C1208.67,306 1208.02,310.222 1207.49,314.451C1207.38,315.337 1206.97,315.722 1206.13,315.825C1204.72,315.997 1203.31,316.191 1201.89,316.273C1190.68,316.923 1179.47,317.549 1168.27,318.183C1168.26,318.136 1168.26,318.09 1168.26,318.043" style="fill:rgb(252,252,252);fill-rule:nonzero;"/>
                        <path d="M1139.94,299.631C1140.47,306.451 1140.86,311.413 1141.25,316.375C1141.27,316.659 1141.3,316.941 1141.33,317.225C1141.41,318.305 1140.87,318.936 1139.9,318.822C1137.36,318.524 1134.81,318.256 1132.28,317.87C1125.38,316.816 1118.63,315.122 1111.96,313.088C1106.11,311.305 1100.36,309.231 1094.63,307.114C1093.45,306.678 1092.71,306.041 1092.55,304.728C1091.75,298.23 1091,291.73 1091.35,285.164C1091.66,279.568 1092.88,274.198 1095.32,269.123C1095.81,268.111 1096.52,267.587 1097.59,267.453C1098.29,267.364 1099,267.234 1099.7,267.194C1107.94,266.729 1116.16,266.004 1124.42,265.973C1128.54,265.957 1132.67,265.897 1136.79,265.872C1137.93,265.864 1139.07,265.883 1140.2,265.933C1142.52,266.036 1142.74,266.3 1142.3,268.402C1142.01,269.793 1141.69,271.179 1141.44,272.578C1140.62,277.203 1140.01,281.856 1139.95,286.558C1139.9,291.535 1139.94,296.513 1139.94,299.631" style="fill:rgb(252,252,252);fill-rule:nonzero;"/>
                        <path d="M1259.71,298.593C1259.67,299.727 1259.63,301.863 1259.46,303.987C1259.36,305.254 1259.05,306.505 1258.82,307.762C1258.68,308.558 1258.13,308.981 1257.39,309.145C1255.32,309.605 1253.24,310.084 1251.14,310.474C1241.35,312.299 1231.47,313.473 1221.58,314.574C1218.19,314.952 1214.79,315.176 1211.39,315.457C1210.8,315.506 1210.22,314.956 1210.29,314.443C1210.34,314.022 1210.39,313.6 1210.46,313.184C1211.26,308.851 1212.03,304.512 1212.88,300.188C1213.8,295.437 1214.44,290.644 1214.81,285.826C1215.12,281.857 1215.16,277.871 1214.57,273.906C1214.42,272.928 1214.41,271.929 1214.34,270.939C1214.32,270.566 1214.78,270.098 1215.15,270.122C1216.28,270.2 1217.41,270.273 1218.54,270.379C1230.87,271.53 1243.11,273.267 1255.25,275.652C1255.67,275.733 1256.08,275.859 1256.47,276.016C1257.03,276.239 1257.43,276.678 1257.53,277.257C1257.81,278.939 1258.02,280.633 1258.28,282.319C1259.26,288.559 1259.61,292.244 1259.71,298.593" style="fill:rgb(252,252,252);fill-rule:nonzero;"/>
                        <path d="M1085.71,219.174C1091.39,219.322 1095.7,215.485 1096.46,209.761C1096.55,209.058 1096.64,208.348 1096.65,207.64C1096.7,203.272 1094.74,200.019 1091.06,197.771C1089.26,196.675 1087.64,196.83 1085.93,198.178C1085.6,198.441 1085.28,198.729 1084.97,199.018C1081.87,201.898 1079.78,205.4 1078.74,209.488C1078.43,210.71 1078.33,212.013 1078.33,213.28C1078.31,215.837 1079.68,217.514 1081.96,218.532C1083.16,219.067 1084.42,219.185 1085.71,219.174M1069.83,215.795C1069.64,208.198 1072.93,201.573 1079.27,196.385C1081.7,194.396 1084.35,192.74 1087.17,191.351C1088.71,190.591 1090.32,190.05 1092.02,189.785C1096.09,189.151 1099.62,190.278 1102.59,193.101C1105.68,196.04 1107.32,199.782 1108.4,203.831C1109.78,208.976 1108.78,213.71 1105.93,218.083C1103.42,221.918 1100.34,225.262 1096.7,228.06C1095.69,228.837 1094.61,229.532 1093.5,230.167C1091.24,231.463 1088.83,232.176 1086.18,232.102C1083.47,232.026 1080.8,231.97 1078.17,231.144C1074.16,229.883 1071.66,227.286 1070.59,223.225C1070.01,220.997 1069.88,218.739 1069.83,215.795" style="fill:rgb(249,249,249);fill-rule:nonzero;"/>
                        <path d="M1087.42,304.134C1081.71,301.486 1075.51,298.64 1069.65,295.113C1064.27,291.867 1059.25,288.132 1055.18,283.296C1051.03,278.378 1050.81,278.994 1056.59,276.274C1060.2,274.574 1063.98,273.31 1067.83,272.291C1075.12,270.357 1082.57,269.238 1090.05,268.263C1090.57,268.195 1091.14,268.828 1091.03,269.354C1090.81,270.326 1090.6,271.297 1090.36,272.263C1089.14,277.253 1088.62,282.342 1088.19,287.444C1087.95,290.289 1087.99,293.125 1088.28,295.961C1088.55,298.506 1088.83,301.049 1089.1,303.594C1089.15,304.131 1088.46,304.561 1087.42,304.134" style="fill:rgb(249,249,249);fill-rule:nonzero;"/>
                        <path d="M1272.18,218.212C1272.03,217.608 1271.62,217.273 1271.1,217.03C1270.54,216.769 1270,216.846 1269.53,217.204C1268.23,218.192 1268.03,219.413 1268.9,220.862C1269.19,221.35 1269.87,221.498 1270.33,221.232C1271.22,220.72 1271.82,219.979 1272.12,219.014C1272.2,218.759 1272.17,218.468 1272.18,218.212M1278.31,218.575C1278.38,219.954 1278,221.304 1277.4,222.619C1276.57,224.456 1275.42,226.055 1273.93,227.416C1268.82,232.081 1262.45,231.414 1257.91,228.02C1253.16,224.477 1252.26,218.01 1255.76,213.229C1258.04,210.11 1261.05,208.045 1264.94,207.622C1268.79,207.203 1272.3,208.184 1275.15,210.898C1277.67,213.287 1278.51,215.835 1278.31,218.575" style="fill:rgb(92,99,112);fill-rule:nonzero;"/>
                        <path d="M1093.68,209.167C1093.72,207.94 1093.06,207.153 1092.01,207.193C1091.09,207.228 1090.45,207.914 1090.45,208.843C1090.46,210.066 1091.14,210.859 1092.15,210.833C1093.08,210.809 1093.65,210.185 1093.68,209.167M1085.71,219.173C1084.42,219.184 1083.16,219.066 1081.96,218.532C1079.68,217.514 1078.31,215.836 1078.33,213.279C1078.33,212.012 1078.43,210.709 1078.74,209.487C1079.78,205.399 1081.87,201.897 1084.97,199.018C1085.28,198.728 1085.6,198.441 1085.93,198.177C1087.64,196.829 1089.26,196.674 1091.06,197.77C1094.74,200.018 1096.7,203.271 1096.65,207.639C1096.64,208.347 1096.55,209.057 1096.46,209.76C1095.7,215.485 1091.39,219.322 1085.71,219.173" style="fill:rgb(92,99,112);fill-rule:nonzero;"/>
                        <path d="M1272.18,218.212C1272.17,218.468 1272.2,218.759 1272.12,219.014C1271.82,219.979 1271.22,220.72 1270.33,221.232C1269.87,221.498 1269.19,221.35 1268.9,220.862C1268.03,219.413 1268.23,218.192 1269.53,217.204C1270,216.846 1270.54,216.769 1271.1,217.03C1271.62,217.273 1272.03,217.608 1272.18,218.212" style="fill:rgb(249,249,249);fill-rule:nonzero;"/>
                        <path d="M1093.68,209.167C1093.65,210.185 1093.08,210.809 1092.15,210.833C1091.14,210.859 1090.46,210.066 1090.45,208.843C1090.45,207.914 1091.09,207.228 1092.01,207.193C1093.06,207.153 1093.72,207.94 1093.68,209.167" style="fill:rgb(249,249,249);fill-rule:nonzero;"/>
                    </g>
                </g>
            </g>
        </g>
    </g>
</svg>
